# xmcd
#
# Track frame offsets: 
#        182
#        17070
#        39080
#        60040
#        81705
#        95695
#        113150
#        131947
#        155227
#        170535
#        202617
#        223392
#
# Disc length: 3254 seconds
#
# Revision: 6
# Processed by: cddbd v1.5.2PL0 Copyright (c) Steve Scherf et al.
# Submitted via: ExactAudioCopyFreeDBPlugin 1.0
#
DISCID=a50cb40c
DTITLE=Billy Branch - Satisfy Me
DYEAR=1996
DGENRE=Blues*
TTITLE0=It's A Crazy Mixed Up World
TTITLE1=Pay Or Stay
TTITLE2=Kissing My Love
TTITLE3=(Hey Baby) You're Looking Real Good
TTITLE4=Satisfy Me
TTITLE5=Highway Blues
TTITLE6=One Chance With You
TTITLE7=Heart In Your Life
TTITLE8=Son Of Juke
TTITLE9=Same Thing
TTITLE10=Boogie Man
TTITLE11=Goin' Down
EXTD=
EXTT0=
EXTT1=
EXTT2=
EXTT3=
EXTT4=
EXTT5=
EXTT6=
EXTT7=
EXTT8=
EXTT9=
EXTT10=
EXTT11=
PLAYORDER=
